<?xml version="1.0" encoding="utf-8"?>
<!-- Generator: Adobe Illustrator 22.1.0, SVG Export Plug-In . SVG Version: 6.00 Build 0)  -->
<svg version="1.1" id="Layer_1" xmlns="http://www.w3.org/2000/svg" xmlns:xlink="http://www.w3.org/1999/xlink" x="0px" y="0px"
	 viewBox="0 0 506 506" style="enable-background:new 0 0 506 506;" xml:space="preserve">
<style type="text/css">
	.st0{display:none;}
	.st1{display:none;fill:#FFFFFF;}
	.st2{fill:#FFFFFF;}
</style>
<rect class="st0" width="506" height="506"/>
<path class="st1" d="M103.1,78.5c49.7,0,98.7,0,148.3,0c-3.7,10.4-7.3,20.4-10.9,30.4c-3,8.3-6.3,16.5-9.2,24.8
	c-1.1,3.2-2.7,4.3-6.1,4.3c-19.7-0.2-39.3,0-59-0.2c-4.2,0-5.8,0.9-5.7,5.5c0.2,47,0.2,94,0,141c0,3.6,1.2,5.7,4,7.8
	c29.4,22.2,58.7,44.4,87.9,66.8c3.1,2.4,5.2,2.2,8.2-0.1c29.2-22.4,58.5-44.6,87.9-66.8c2.7-2,3.8-4.1,3.8-7.5
	c-0.1-47-0.1-94,0.1-141c0-4.7-1.6-5.8-6-5.8c-21,0.2-42,0.1-63.3,0.1c-7.2-19.7-14.5-39.4-21.8-59.4c49.6,0,98.7,0,148.2,0
	c0.1,1.7,0.2,3.3,0.2,4.9c0,77,0,154,0.1,231c0,3.5-1.1,5.8-3.9,7.9c-48.3,36.6-96.6,73.3-144.9,109.9c-1.4,1.1-2.9,2.2-4.5,3.4
	c-13.8-10.5-27.5-20.8-41.2-31.2c-35.2-26.7-70.2-53.4-105.5-79.9c-4.9-3.6-6.9-7.3-6.8-13.5c0.2-75.7,0.2-151.3,0.2-227
	C103.1,82.3,103.1,80.7,103.1,78.5z"/>
<path class="st2" d="M442.1,149.5c0,66.5,0,131,0,197.2c-9.2,0-18.5,0-29.4,0c0-50.6,0-101.1,0-151.6c-1-0.1-2-0.3-2.9-0.3
	c-12.4,50.9-24.9,101.7-37.5,152.7c-9.2,0-17.2,0-27,0c-12.5-51.6-25.2-103-37.7-154.5c-0.7,0-1.5,0-2.2,0c0,51,0,102,0,154
	c-10.6,0-19.5,0-29.3,0c0-65.7,0-130.7,0-196.7c16.2,0,31.6,0,48.5,0c11.1,45.9,22.2,92.2,33.4,138.6c1,0.1,2,0.3,3.1,0.4
	c5.1-21.1,10.3-42.3,15.3-63.4c5.1-21.4,10.5-42.8,14.9-64.6c1.9-8.9,5.1-13.1,14.9-12.2C417.3,150.2,428.7,149.5,442.1,149.5z"/>
<path class="st2" d="M125.7,286.9c9.3,0,18.8,0,29.1,0c1,5.8,1.9,11.5,3.1,17.2c3.2,15.3,12.8,22.7,28.6,23.3
	c14.6,0.4,25.4-5.1,30.3-19.1c5.1-14.1-0.4-31.5-13.3-38.2c-11.4-6-23.9-9.8-36-14.1c-23-8.5-39.1-22.6-40.2-48.8
	c-1-23.3,5.4-43.4,28-53.8c24.9-11.4,50.4-12.4,73.7,4.2c14.6,10.3,16.2,26.8,15.4,44.6c-10.3,0-19.8,0-30,0
	c-3.2-13.7-3.2-30-23.3-31.3c-13.6-0.9-25.2,1.5-29.9,16c-4.5,14-3.1,27.8,10.3,35.8c12.4,7.3,26.2,11.9,39.8,17.2
	c34.1,13.3,46.5,38.6,36.3,73.6c-5,16.8-15.2,29.4-32.1,33.2c-14.4,3.2-30,5.4-44.4,3.5C138.1,345.9,121.5,321.4,125.7,286.9z"/>
<path class="st2" d="M69.8,150.4c10.3,0,19.7,0,30.2,0c0,65.6,0,130.6,0,196.7c-10.1,0-20,0-30.2,0
	C69.8,281.1,69.8,216.1,69.8,150.4z"/>
</svg>
