<?xml version="1.0" encoding="utf-8"?>
<!-- Generator: Adobe Illustrator 22.1.0, SVG Export Plug-In . SVG Version: 6.00 Build 0)  -->
<svg version="1.1" id="Layer_1" xmlns="http://www.w3.org/2000/svg" xmlns:xlink="http://www.w3.org/1999/xlink" x="0px" y="0px"
	 viewBox="0 0 506 506" style="enable-background:new 0 0 506 506;" xml:space="preserve">
<style type="text/css">
	.st0{display:none;}
	.st1{display:none;fill:#FFFFFF;}
	.st2{fill:#FFFFFF;}
</style>
<rect class="st0" width="506" height="506"/>
<path class="st1" d="M103.1,78.5c49.7,0,98.7,0,148.3,0c-3.7,10.4-7.3,20.4-10.9,30.4c-3,8.3-6.3,16.5-9.2,24.8
	c-1.1,3.2-2.7,4.3-6.1,4.3c-19.7-0.2-39.3,0-59-0.2c-4.2,0-5.8,0.9-5.7,5.5c0.2,47,0.2,94,0,141c0,3.6,1.2,5.7,4,7.8
	c29.4,22.2,58.7,44.4,87.9,66.8c3.1,2.4,5.2,2.2,8.2-0.1c29.2-22.4,58.5-44.6,87.9-66.8c2.7-2,3.8-4.1,3.8-7.5
	c-0.1-47-0.1-94,0.1-141c0-4.7-1.6-5.8-6-5.8c-21,0.2-42,0.1-63.3,0.1c-7.2-19.7-14.5-39.4-21.8-59.4c49.6,0,98.7,0,148.2,0
	c0.1,1.7,0.2,3.3,0.2,4.9c0,77,0,154,0.1,231c0,3.5-1.1,5.8-3.9,7.9c-48.3,36.6-96.6,73.3-144.9,109.9c-1.4,1.1-2.9,2.2-4.5,3.4
	c-13.8-10.5-27.5-20.8-41.2-31.2c-35.2-26.7-70.2-53.4-105.5-79.9c-4.9-3.6-6.9-7.3-6.8-13.5c0.2-75.7,0.2-151.3,0.2-227
	C103.1,82.3,103.1,80.7,103.1,78.5z"/>
<path class="st2" d="M430,241.1c0,38.5,0,76.7,0,115.2c-16.7,0-33.3,0-50.3,0c0-6.3,0-12.5,0-19.3c-2.7,3-4.9,5.8-7.4,8.2
	c-9.2,8.8-20.4,13.5-32.8,15.3c-16,2.3-31.6,1-46.6-5.4c-16.6-7.1-28.9-18.9-37.6-34.5c-11.4-20.4-15.1-42.5-14.9-65.5
	c0.1-17.9,3.1-35.2,10.9-51.5c12.5-26,33.3-41.6,61.1-48c22.5-5.1,45.1-4.6,67.1,3c16.7,5.8,30.9,15.3,40.5,30.6
	c5,8,7.2,17,8.6,26.1c0.4,2.7,0.8,5.4,1.2,8.5c-0.9,0-1.7,0.1-2.5,0.1c-18.7,0-37.4,0-56.1,0c-2,0-2.9-0.5-3.3-2.7
	c-3.1-16.6-17.2-23.8-31-22.6c-15.9,1.4-24.5,11.6-29.8,25.4c-2.8,7.3-4.2,14.9-4.7,22.6c-0.9,14.4-0.6,28.6,4.1,42.5
	c2.5,7.3,6.1,14.1,11.9,19.3c18.3,16.6,46.6,9,54.4-14.6c1.2-3.7,2.1-7.5,3.3-11.8c-1.5,0-2.4,0-3.4,0c-10.7,0-21.4-0.1-32,0
	c-2.3,0-2.9-0.7-2.8-2.9c0.1-11.9,0.1-23.8,0-35.8c0-1.9,0.3-2.9,2.6-2.9c29.2,0.1,58.4,0,87.6,0.1C428.5,241,429.1,241.1,430,241.1
	z"/>
<path class="st2" d="M228.8,307.3c0,16.6,0,32.8,0,49.4c-1.1,0-2,0-3,0c-46.6,0-93.2,0-139.9,0.1c-2.5,0-3.1-0.7-3.1-3.1
	c0.1-64.2,0.1-128.5,0.1-192.7c0-1,0-1.9,0-3c19.6,0,38.8,0,58.4,0c0,1.2,0,2.4,0,3.5c0,47.3,0,94.7,0,142c0,3.9,0,3.9,3.9,3.9
	c26.6,0,53.2,0,79.8,0C226.1,307.3,227.3,307.3,228.8,307.3z"/>
</svg>
