<?xml version="1.0" encoding="utf-8"?>
<!-- Generator: Adobe Illustrator 22.1.0, SVG Export Plug-In . SVG Version: 6.00 Build 0)  -->
<svg version="1.1" id="Layer_1" xmlns="http://www.w3.org/2000/svg" xmlns:xlink="http://www.w3.org/1999/xlink" x="0px" y="0px"
	 viewBox="0 0 506 506" style="enable-background:new 0 0 506 506;" xml:space="preserve">
<style type="text/css">
	.st0{display:none;}
	.st1{display:none;fill:#FFFFFF;}
	.st2{fill:#FFFFFF;}
</style>
<rect class="st0" width="506" height="506"/>
<path class="st1" d="M103.1,78.5c49.7,0,98.7,0,148.3,0c-3.7,10.4-7.3,20.4-10.9,30.4c-3,8.3-6.3,16.5-9.2,24.8
	c-1.1,3.2-2.7,4.3-6.1,4.3c-19.7-0.2-39.3,0-59-0.2c-4.2,0-5.8,0.9-5.7,5.5c0.2,47,0.2,94,0,141c0,3.6,1.2,5.7,4,7.8
	c29.4,22.2,58.7,44.4,87.9,66.8c3.1,2.4,5.2,2.2,8.2-0.1c29.2-22.4,58.5-44.6,87.9-66.8c2.7-2,3.8-4.1,3.8-7.5
	c-0.1-47-0.1-94,0.1-141c0-4.7-1.6-5.8-6-5.8c-21,0.2-42,0.1-63.3,0.1c-7.2-19.7-14.5-39.4-21.8-59.4c49.6,0,98.7,0,148.2,0
	c0.1,1.7,0.2,3.3,0.2,4.9c0,77,0,154,0.1,231c0,3.5-1.1,5.8-3.9,7.9c-48.3,36.6-96.6,73.3-144.9,109.9c-1.4,1.1-2.9,2.2-4.5,3.4
	c-13.8-10.5-27.5-20.8-41.2-31.2c-35.2-26.7-70.2-53.4-105.5-79.9c-4.9-3.6-6.9-7.3-6.8-13.5c0.2-75.7,0.2-151.3,0.2-227
	C103.1,82.3,103.1,80.7,103.1,78.5z"/>
<path class="st2" d="M496.8,157.1c-0.6,0.9-1.2,1.7-1.7,2.7c-16,30.5-32,61.1-48,91.6c-1.1,2.1-1.2,3.7,0,5.8
	c15.8,29.5,31.5,59.2,47.3,88.7c0.6,1.1,1.1,2.2,1.9,3.7c-1.1,0.1-1.9,0.1-2.8,0.1c-16.9,0-33.9,0-50.8,0.1c-2.1,0-3.1-0.7-4-2.5
	c-6.6-14.4-13.4-28.8-20-43.2c-0.4-1-0.9-1.9-1.5-3.1c-0.6,1.2-1.1,2.1-1.5,3.1c-6.6,14.4-13.3,28.8-19.9,43.2
	c-0.7,1.4-1.2,2.7-3.3,2.7c-17.7-0.1-35.4-0.1-53-0.1c-0.3,0-0.7-0.1-1.3-0.2c0.7-1.2,1.2-2.3,1.8-3.4c15.8-29.7,31.6-59.3,47.6-89
	c1.1-2,1.2-3.4,0.1-5.5c-7.6-13.8-15.2-27.7-22.7-41.5c-0.8-1.5-1.7-2.4-3.5-2.4c-30,0.1-60,0-89.9,0.1c-0.6,0-1,0.1-1.8,0.1
	c0,13.1,0,26,0,39.5c18.7,0,37.5,0,56.4,0c0,15.4,0,30.4,0,45.7c-18.8,0-37.5,0-56.7,0c0,18.9,0,37.6,0,56.4c-17.3,0-34,0-51.1,0
	c0-64.2,0-128.4,0-193.1c1,0,2.2,0,3.3,0c56.5,0,113.1,0,169.6-0.1c2.8,0,3.8,1,4.8,3.3c6.5,15.8,13.2,31.6,19.8,47.4
	c0.4,1,0.9,1.9,1.5,3.2c4.2-10,8.3-19.5,12.3-29c3.1-7.4,6.3-14.8,9.3-22.2c0.8-2,1.8-2.8,4.1-2.8c18,0.1,36,0.1,54,0.1
	C496.8,156.6,496.8,156.8,496.8,157.1z"/>
<path class="st2" d="M13.2,156.4c16.9,0,33.9,0,51.2,0c0,47.5,0,94.7,0,142.2c19,0,37.7,0,56.7,0c0,17,0,33.8,0,50.9
	c-36,0-71.9,0-107.9,0C13.2,285.2,13.2,220.8,13.2,156.4z"/>
<path class="st2" d="M144.3,156.5c17,0,33.9,0,50.8,0c0,64.3,0,128.5,0,192.9c-16.9,0-33.8,0-50.8,0
	C144.3,285.2,144.3,221,144.3,156.5z"/>
</svg>
