<?xml version="1.0" encoding="utf-8"?>
<!-- Generator: Adobe Illustrator 22.1.0, SVG Export Plug-In . SVG Version: 6.00 Build 0)  -->
<svg version="1.1" id="Layer_1" xmlns="http://www.w3.org/2000/svg" xmlns:xlink="http://www.w3.org/1999/xlink" x="0px" y="0px"
	 viewBox="0 0 506 506" style="enable-background:new 0 0 506 506;" xml:space="preserve">
<style type="text/css">
	.st0{display:none;}
	.st1{display:none;fill:#FFFFFF;}
	.st2{fill:#FFFFFF;}
</style>
<rect class="st0" width="506" height="506"/>
<path class="st1" d="M103.1,78.5c49.7,0,98.7,0,148.3,0c-3.7,10.4-7.3,20.4-10.9,30.4c-3,8.3-6.3,16.5-9.2,24.8
	c-1.1,3.2-2.7,4.3-6.1,4.3c-19.7-0.2-39.3,0-59-0.2c-4.2,0-5.8,0.9-5.7,5.5c0.2,47,0.2,94,0,141c0,3.6,1.2,5.7,4,7.8
	c29.4,22.2,58.7,44.4,87.9,66.8c3.1,2.4,5.2,2.2,8.2-0.1c29.2-22.4,58.5-44.6,87.9-66.8c2.7-2,3.8-4.1,3.8-7.5
	c-0.1-47-0.1-94,0.1-141c0-4.7-1.6-5.8-6-5.8c-21,0.2-42,0.1-63.3,0.1c-7.2-19.7-14.5-39.4-21.8-59.4c49.6,0,98.7,0,148.2,0
	c0.1,1.7,0.2,3.3,0.2,4.9c0,77,0,154,0.1,231c0,3.5-1.1,5.8-3.9,7.9c-48.3,36.6-96.6,73.3-144.9,109.9c-1.4,1.1-2.9,2.2-4.5,3.4
	c-13.8-10.5-27.5-20.8-41.2-31.2c-35.2-26.7-70.2-53.4-105.5-79.9c-4.9-3.6-6.9-7.3-6.8-13.5c0.2-75.7,0.2-151.3,0.2-227
	C103.1,82.3,103.1,80.7,103.1,78.5z"/>
<path class="st2" d="M132.5,347.6c-7.4-0.9-14.8-1.5-22.1-2.5c-32.4-4.6-63.1-14-89.8-33.9c-7.6-5.6-14.6-12-20-21
	c1.5,0.3,2.4,0.6,3.2,0.9c26.4,10.7,54,17,82.1,19.8c22.3,2.2,44.8,3.5,67.2,3.4c32.7-0.2,64.7-5.8,96.2-13.8
	c34.7-8.7,69-18.8,103.4-27.9c24.1-6.4,48.5-11.4,73.3-13.4c1.3-0.1,2.6-0.4,3.3-0.6c-3.4-5.5-7-11-10.3-16.2
	c-3.2,3.6-6.5,8.1-10.5,11.7c-3,2.6-6.6,5-10.5,6.1c-6.8,2-11.8-1.3-13.9-8.3c-0.9-3.1-1.2-6.3-1.9-9.8c-2.8,3.1-5.2,6.3-8.3,8.9
	c-3.4,3-7,5.8-10.9,7.8c-7.6,3.9-12.9,1.2-14.9-7.2c-0.9-3.6-1-7.5-1.5-11.7c-0.7,0.9-1.3,1.7-2,2.4c-3.9,4.5-7.2,9.6-11.6,13.4
	c-10.4,8.9-21.7,5.6-26.4-7.4c-1-2.8-1.5-5.7-2.3-9.2c-2.1,2.5-3.6,5.2-5.8,7.2c-4.7,4.3-9.4,9.1-14.9,12.3
	c-7.7,4.4-13.7,1.5-16.2-7.1c-0.9-3.1-1.3-6.3-2-9.3c-4.3,3.9-8.3,8.2-12.9,11.5c-4,2.8-8.6,5-13.2,6.2c-6,1.5-10.6-1.3-11.7-7.4
	c-0.8-4.4-0.7-9.4,0.6-13.7c1.8-6.6,4.9-12.9,7.5-19.9c-4.2,2.2-8.9,2.8-11.8,7.5c-6.1,10.3-13.7,19.4-23.6,26.3
	c-5.8,4.1-12.3,7-19.5,7.5c-13.5,1.1-23.1-6.8-24.3-20.3c-0.1-1.3-0.1-2.8-0.3-5.2c-1.3,2-2.1,3.3-2.9,4.5
	c-6.6,9.7-14.5,17.8-26.3,20.7c-5.1,1.3-9.5-0.2-13.1-3.9c-6.1-6.1-8.8-13.7-9.4-22.2c-1.2-18.3,4.5-35.1,11.5-51.7
	c2.1-5,4.5-9.7,6.1-15.3c-2.2,2.1-4.7,4-6.5,6.4c-7.8,10-11.7,22.2-16.1,33.9c-4.6,12-8.6,24.2-13.8,36c-2.2,5.1-6.3,9.6-10.3,13.8
	c-2.9,3.1-7,4.1-11.4,3.1c-6.4-1.5-6.6-2.6-5.5-9.1c1.7-9.3,3.4-18.8,3.4-28.1c0-19.3,2-38.4,7-57.1c0.1-0.4,0-0.8-0.8-1.7
	c-1.1,2-2.6,4-3.3,6.1c-4.4,13.2-8.8,26.5-12.7,40c-3.5,12-7,24.2-13.7,35c-4.7,7.6-10.7,14-20.4,14.8c-2.6,0.2-5.4,0.1-8.1-0.3
	c-6.1-1.2-9.6-6.8-8.8-13.5c0.7-5.8,5.5-10.8,10.5-11c3-0.1,4.9,1,5.5,4c0.7,2.9,1.5,5.7,2.2,8.6s2.4,3.5,5.1,2.9
	c5.3-1.3,8.7-5.1,10.6-9.7c4.3-10.6,8.3-21.3,11.9-32.1c4.5-13.5,8.2-27.3,13-40.7c1.9-5.3,5.7-9.9,9.3-14.5
	c2.6-3.4,6.3-3.2,9.8-0.7c4.2,3.1,6.6,6,5.4,12.1c-1.7,8.4-1.2,17.1-1.7,25.7c-0.9,14.9-1.7,29.8-2.5,44.9c1.3-2.2,3-4.5,4.1-7.2
	c7.2-16.8,14.1-33.6,21.2-50.3c3-7.1,6.2-14,12-19.3c7.5-6.7,16.2-9.2,26.9-7c-1,3.5-1.9,6.6-2.9,9.6c-7.2,20-13,40.3-15,61.6
	c-0.6,5.7-0.4,11.6,0.4,17.2c0.9,6.3,4.6,8.2,10.5,5.5c10-4.4,16.7-12.3,21-22.2c2-4.6,3.6-9.5,6.1-13.9
	c6.2-11.1,16.4-15.5,28.7-15.3c5.3,0,10.3,1.8,12.5,7.2c2.2,5.5,0.9,10.6-2.9,15c-6.5,7.6-15.6,11.1-24.8,13.8
	c-3.9,1.1-4.5,2.6-3.8,6.2c2.1,10.4,9.9,15,19.9,11.1c3.3-1.3,6.7-3.2,9.3-5.7c5.6-5.6,10.7-11.9,16-17.9
	c-9.1-8.8-7.2-23.2,3.1-28.7c6.2-3.3,10.3-0.9,10.3,6.1c0,2.1-0.3,4.2-0.7,6.3c-0.3,1.9-0.9,3.9-0.6,6.8c3.2-1.9,7-3.3,9.6-5.8
	c3.4-3.3,6.1-7.4,8.9-11.1c0.7-0.9,1-2.3,1.9-2.8c1.4-0.7,3.1-0.8,4.6-1.1c0.1,1.3,0.8,2.9,0.4,4.1c-2.6,8.6-5.6,17.2-8.1,25.8
	c-1.4,5-2.3,10.2-3,15.3c-0.6,4.4,1.7,6.1,6.1,5.6c5.2-0.6,13.6-7.8,15.2-12.8c3.3-9.9,6.8-19.8,9.9-29.7c1.3-4.1,3.8-6.1,7.9-6.3
	c3.4-0.2,7-0.4,11-0.8c-0.4,2.3-0.6,3.8-1,5.2c-3,9.8-6.1,19.6-9.2,29.5c-1.3,4.2-1.7,8.3,0.7,12.3c1.7,2.8,3.8,3.8,6.6,1.5
	c6.2-4.6,12-9.1,14.5-17.4c3.1-10.7,9.9-19.3,19.3-25.5c2.6-1.8,5.6-3.2,8.7-4.3c7.2-2.5,11.5-1.9,17.7,2.6
	c2.8-13.5,5.7-26.8,8.3-40.3c0.6-3.1,1.9-4.4,4.6-5.1c3.2-0.8,6.2-2.1,9.4-2.6c2.3-0.3,4.9,0.2,7.6,0.3c-3.4,13.2-7,25.6-9.7,38.1
	c-3.4,15.5-6.2,31-9.3,46.5c0,0.3-0.2,0.6-0.1,0.9c0.3,2.9,0.8,5.6,1.2,8.5c2.9-0.8,6.2-0.9,8.7-2.4c5.4-3.2,9.6-7.5,11.1-14.2
	c1.9-7.9,4.2-15.8,6.5-23.7c2.3-7.8,11.5-13.1,19.6-11.8c2.9,0.6,2.4,2.3,1.8,4.1c-2.5,7.6-5.4,15.1-7.7,22.8
	c-1.7,5.4-3,10.9-3.6,16.4c-0.2,2,1.3,5.3,3,6.2c1.7,0.9,5,0.3,6.8-0.8c5.8-3.5,8.8-9.4,10.5-15.9c5.4-20.4,20.4-31.7,41.7-31.3
	c7.4,0.1,12.1,4.2,11.6,11.6c-0.8,8.8-3,17.7-4.5,26.5c-0.4,0-0.9,0.1-1.3,0.1c2.4,1.3,4.9,2.6,7.2,4.1
	c12.3,7.5,21.4,17.4,24.9,31.8c0.4,1.7,0.8,3.2,1.2,4.9c0,2.5,0,5.1,0,7.6c-1.1-0.7-2.1-1.3-3.2-1.9c-6.2-3.6-12-7.9-18.5-10.8
	c-12.6-5.4-26-6.1-39.5-5.2c-24.3,1.5-47.2,8.4-69.5,17.5c-25.8,10.7-51.2,22.4-77,32.9c-40.3,16.2-81.7,27.9-125.2,31.6
	c-4.2,0.3-8.4,0.9-12.5,1.2C148.8,347.6,140.7,347.6,132.5,347.6z M323.3,234.3c0.1,0.1,0.3,0.1,0.4,0.2c0.1,2,0.1,4,0.4,5.8
	c0.7,5.2,3.6,7.1,8.6,5.5c2-0.6,4.2-1.5,5.4-3c8.4-10.3,12.3-22.1,11.4-35.2c-0.3-5.3-5.3-7.5-9.9-5c-5.6,3.1-9.9,7.6-11.9,13.7
	C325.9,222.1,324.8,228.3,323.3,234.3z M456.3,203.5c-19,2.2-30.6,27.2-20.3,42.7c2.5,3.9,6,5.5,10.5,4.6
	c7.1-1.4,10.8-6.4,13.6-12.4C447.3,225.9,446.4,218.1,456.3,203.5z M496.8,272.5c-4.9-17-16.1-26-29.8-31.1
	c-5.7,6.2-10.8,11.8-15.8,17.1C466.9,259.3,482.8,261.3,496.8,272.5z M172.9,221.9c-0.3,4.4,1.9,5.8,6.8,4.2
	c5.8-1.9,13.5-11.8,12.8-18c-0.2-2.4-2-5.5-4-6.7c-1.4-0.9-4.9,0.1-6.7,1.4C175.3,207.4,173.3,214.4,172.9,221.9z"/>
<path class="st2" d="M283.2,181.1c0.1-4.5,3.3-7.7,7.8-7.7s8.1,3.5,7.9,8c-0.1,4.2-3.7,7.7-7.9,7.8
	C286.6,189.2,283.1,185.7,283.2,181.1z"/>
<path class="st2" d="M388.8,180.5c0.2-4.4,3.7-7.6,8.1-7.4c4.3,0.2,7.6,3.8,7.5,8.1s-3.7,7.7-8,7.6
	C391.9,188.7,388.6,185.2,388.8,180.5z"/>
</svg>
