<?xml version="1.0" encoding="utf-8"?>
<!-- Generator: Adobe Illustrator 22.1.0, SVG Export Plug-In . SVG Version: 6.00 Build 0)  -->
<svg version="1.1" id="Layer_1" xmlns="http://www.w3.org/2000/svg" xmlns:xlink="http://www.w3.org/1999/xlink" x="0px" y="0px"
	 viewBox="0 0 506 506" style="enable-background:new 0 0 506 506;" xml:space="preserve">
<style type="text/css">
	.st0{display:none;}
	.st1{display:none;fill:#FFFFFF;}
	.st2{fill:#FFFFFF;}
</style>
<rect class="st0" width="506" height="506"/>
<path class="st1" d="M103.1,78.5c49.7,0,98.7,0,148.3,0c-3.7,10.4-7.3,20.4-10.9,30.4c-3,8.3-6.3,16.5-9.2,24.8
	c-1.1,3.2-2.7,4.3-6.1,4.3c-19.7-0.2-39.3,0-59-0.2c-4.2,0-5.8,0.9-5.7,5.5c0.2,47,0.2,94,0,141c0,3.6,1.2,5.7,4,7.8
	c29.4,22.2,58.7,44.4,87.9,66.8c3.1,2.4,5.2,2.2,8.2-0.1c29.2-22.4,58.5-44.6,87.9-66.8c2.7-2,3.8-4.1,3.8-7.5
	c-0.1-47-0.1-94,0.1-141c0-4.7-1.6-5.8-6-5.8c-21,0.2-42,0.1-63.3,0.1c-7.2-19.7-14.5-39.4-21.8-59.4c49.6,0,98.7,0,148.2,0
	c0.1,1.7,0.2,3.3,0.2,4.9c0,77,0,154,0.1,231c0,3.5-1.1,5.8-3.9,7.9c-48.3,36.6-96.6,73.3-144.9,109.9c-1.4,1.1-2.9,2.2-4.5,3.4
	c-13.8-10.5-27.5-20.8-41.2-31.2c-35.2-26.7-70.2-53.4-105.5-79.9c-4.9-3.6-6.9-7.3-6.8-13.5c0.2-75.7,0.2-151.3,0.2-227
	C103.1,82.3,103.1,80.7,103.1,78.5z"/>
<g>
	<path class="st2" d="M116.2,304.7c-0.9,0-1.5,0-2.1,0c-12.3,0-24.6,0-36.9,0c-1.4,0-2.3-0.4-3.1-1.5
		c-15.2-18.8-30.3-37.5-45.5-56.3c-0.6-0.8-1.2-1.5-2.3-2.1c0,19.9,0,39.7,0,59.7c-8.1,0-15.9,0-23.9,0c0-26.3,0-52.7,0-79.3
		c0.6,0,1.3,0,2,0c12.5,0,25,0,37.5,0c1.6,0,2.6,0.5,3.6,1.7c14.8,18.4,29.7,36.8,44.6,55.1c0.5,0.7,1.1,1.3,2,2.5
		c0-20.1,0-39.6,0-59.2c8.2,0,16.1,0,24.1,0C116.2,251.8,116.2,278.1,116.2,304.7z"/>
	<path class="st2" d="M179.1,305.7c-8.7,0-17.5,0.2-26.2-0.1c-4.3-0.1-8.6-0.8-12.8-1.8c-7.8-2-13-8.4-13.5-16.5
		c-0.4-5.6-0.4-11.2-0.4-16.9c-0.1-8.2-0.1-16.3,0.1-24.5c0.1-5.9,1.4-11.5,6.1-15.8c3.9-3.6,8.6-5.1,13.6-5.6
		c4.7-0.5,9.5-0.7,14.2-0.7c14.5-0.1,29.1,0,43.6,0.1c5.5,0.1,11,0.4,16.2,2.4c7.1,2.8,11.2,8.1,11.8,15.7
		c0.5,5.8,0.4,11.7,0.4,17.6c0.1,7.5,0.1,15.1,0,22.6c0,2.8-0.3,5.7-1,8.4c-2,8.1-7.8,12.4-15.7,13.8c-4.1,0.7-8.3,1.1-12.5,1.1
		C195.1,305.9,187.1,305.8,179.1,305.7C179.1,305.8,179.1,305.7,179.1,305.7z M179.2,244.1C179.2,244.1,179.2,244,179.2,244.1
		c-3-0.1-5.9-0.1-8.9-0.1c-5.1,0-10.3,0-15.4,0.1c-3.9,0.1-5.6,1.8-5.9,5.7c-0.1,0.7-0.1,1.5-0.1,2.2c0,6.9,0,13.9,0,20.8
		c0,2.6,0,5.2,0.1,7.8c0.2,2.9,1.7,4.4,4.5,4.8c1.5,0.2,3.1,0.3,4.6,0.3c12.8,0,25.6,0,38.4,0c2.6,0,5.2-0.1,7.8-0.3
		c3.1-0.2,4.8-1.8,4.9-4.9c0.2-5.8,0.2-11.6,0.3-17.4c0-4.4,0.1-8.8-0.2-13.2c-0.3-4.3-2-5.8-6.3-5.8
		C195.2,244,187.2,244.1,179.2,244.1z"/>
	<path class="st2" d="M505.5,304.7c-1.3,0-2.3,0-3.4,0c-8,0-16,0-23.9,0c-1.4,0-2.1-0.5-2.7-1.7c-1.9-3.6-3.9-7.2-5.8-10.8
		c-0.5-1-1.1-1.4-2.3-1.4c-15.3,0-30.7,0-46,0c-1.1,0-1.8,0.4-2.3,1.4c-2,3.8-4,7.5-6.1,11.3c-0.3,0.5-1.1,1.1-1.6,1.1
		c-8.8,0.1-17.6,0.1-26.7,0.1c0.4-0.7,0.6-1.3,0.9-1.8c14.3-25.4,28.6-50.7,42.8-76.1c0.7-1.2,1.4-1.6,2.7-1.6
		c9.3,0.1,18.7,0.1,28,0c1.3,0,2,0.4,2.6,1.5c14.3,25.4,28.6,50.8,42.9,76.3C504.9,303.5,505.1,304,505.5,304.7z M460.1,273.6
		c-5.3-9.7-10.4-19.1-15.7-28.9c-5.4,9.8-10.5,19.2-15.7,28.9C439.2,273.6,449.5,273.6,460.1,273.6z"/>
	<path class="st2" d="M242.6,225.4c8.3,0,16.5,0,24.9,0c0,12.5,0,24.9,0,37.9c0.9-0.7,1.4-1.1,1.9-1.5
		c13.1-11.7,26.3-23.4,39.3-35.1c1.2-1.1,2.4-1.5,4-1.5c10.1,0.1,20.2,0,30.5,0.4c-14.8,12.2-29.5,24.4-44.5,36.8
		c16.9,14.1,33.6,28,50.6,42.2c-1,0.1-1.6,0.1-2.2,0.1c-10.5,0-20.9,0-31.4,0c-1.4,0-2.4-0.4-3.5-1.3
		c-14.3-12.9-28.6-25.7-42.9-38.6c-0.5-0.4-0.9-0.8-1.8-1.5c0,14,0,27.6,0,41.3c-8.5,0-16.7,0-25.1,0
		C242.6,278.3,242.6,251.9,242.6,225.4z"/>
	<path class="st2" d="M379.6,304.6c-8.4,0-16.6,0-25,0c0-26.4,0-52.8,0-79.2c8.3,0,16.6,0,25,0C379.6,251.8,379.6,278.1,379.6,304.6
		z"/>
</g>
</svg>
