<?xml version="1.0" encoding="utf-8"?>
<!-- Generator: Adobe Illustrator 22.1.0, SVG Export Plug-In . SVG Version: 6.00 Build 0)  -->
<svg version="1.1" id="Layer_1" xmlns="http://www.w3.org/2000/svg" xmlns:xlink="http://www.w3.org/1999/xlink" x="0px" y="0px"
	 viewBox="0 0 506 506" style="enable-background:new 0 0 506 506;" xml:space="preserve">
<style type="text/css">
	.st0{display:none;}
	.st1{display:none;fill:#FFFFFF;}
	.st2{fill:#FFFFFF;}
</style>
<rect class="st0" width="506" height="506"/>
<path class="st1" d="M103.1,78.5c49.7,0,98.7,0,148.3,0c-3.7,10.4-7.3,20.4-10.9,30.4c-3,8.3-6.3,16.5-9.2,24.8
	c-1.1,3.2-2.7,4.3-6.1,4.3c-19.7-0.2-39.3,0-59-0.2c-4.2,0-5.8,0.9-5.7,5.5c0.2,47,0.2,94,0,141c0,3.6,1.2,5.7,4,7.8
	c29.4,22.2,58.7,44.4,87.9,66.8c3.1,2.4,5.2,2.2,8.2-0.1c29.2-22.4,58.5-44.6,87.9-66.8c2.7-2,3.8-4.1,3.8-7.5
	c-0.1-47-0.1-94,0.1-141c0-4.7-1.6-5.8-6-5.8c-21,0.2-42,0.1-63.3,0.1c-7.2-19.7-14.5-39.4-21.8-59.4c49.6,0,98.7,0,148.2,0
	c0.1,1.7,0.2,3.3,0.2,4.9c0,77,0,154,0.1,231c0,3.5-1.1,5.8-3.9,7.9c-48.3,36.6-96.6,73.3-144.9,109.9c-1.4,1.1-2.9,2.2-4.5,3.4
	c-13.8-10.5-27.5-20.8-41.2-31.2c-35.2-26.7-70.2-53.4-105.5-79.9c-4.9-3.6-6.9-7.3-6.8-13.5c0.2-75.7,0.2-151.3,0.2-227
	C103.1,82.3,103.1,80.7,103.1,78.5z"/>
<path class="st2" d="M116.4,257.4c0.8-67.2,48.6-124.4,114.8-136.9c26-4.9,51.3-2.3,75.9,6.9c5.8,2.2,6,3,2.2,8
	c-4.6,5.8-9.3,11.6-14,17.4c-8,10-18.4,14.3-31.1,13.4c-32.8-2.1-59.6,9.9-80.2,35.5c-22.7,28.4-25.6,70.3-7.4,101.4
	c19.6,33.5,56.4,51.6,93.3,45.8c47.8-7.4,81-47.8,78.4-96.4c-0.8-15.2,4.2-26.8,16.5-35.7c4.8-3.5,9.4-7.4,14.1-11.1
	c5.2-4.1,6.1-3.9,8.3,2.1c13.4,36.3,12.7,72.4-3.2,107.6c-24.1,53.3-76.7,84.9-135.2,82.1c-63.4-3-118.3-51.3-129.3-113.7
	C118.1,275,117.5,266.1,116.4,257.4z"/>
<path class="st2" d="M337.6,144c18.8,0.2,33.3,15.1,33.1,33.9c-0.2,18.3-14.9,32.9-33,32.9c-19.5,0-34.2-14.9-34-34.2
	C304,158.3,319,143.9,337.6,144z"/>
</svg>
