<?xml version="1.0" encoding="utf-8"?>
<!-- Generator: Adobe Illustrator 22.1.0, SVG Export Plug-In . SVG Version: 6.00 Build 0)  -->
<svg version="1.1" id="Layer_1" xmlns="http://www.w3.org/2000/svg" xmlns:xlink="http://www.w3.org/1999/xlink" x="0px" y="0px"
	 viewBox="0 0 506 506" style="enable-background:new 0 0 506 506;" xml:space="preserve">
<style type="text/css">
	.st0{display:none;}
	.st1{display:none;fill:#FFFFFF;}
	.st2{fill:#FFFFFF;}
	.st3{fill:none;}
</style>
<rect class="st0" width="506" height="506"/>
<path class="st1" d="M103.1,78.5c49.7,0,98.7,0,148.3,0c-3.7,10.4-7.3,20.4-10.9,30.4c-3,8.3-6.3,16.5-9.2,24.8
	c-1.1,3.2-2.7,4.3-6.1,4.3c-19.7-0.2-39.3,0-59-0.2c-4.2,0-5.8,0.9-5.7,5.5c0.2,47,0.2,94,0,141c0,3.6,1.2,5.7,4,7.8
	c29.4,22.2,58.7,44.4,87.9,66.8c3.1,2.4,5.2,2.2,8.2-0.1c29.2-22.4,58.5-44.6,87.9-66.8c2.7-2,3.8-4.1,3.8-7.5
	c-0.1-47-0.1-94,0.1-141c0-4.7-1.6-5.8-6-5.8c-21,0.2-42,0.1-63.3,0.1c-7.2-19.7-14.5-39.4-21.8-59.4c49.6,0,98.7,0,148.2,0
	c0.1,1.7,0.2,3.3,0.2,4.9c0,77,0,154,0.1,231c0,3.5-1.1,5.8-3.9,7.9c-48.3,36.6-96.6,73.3-144.9,109.9c-1.4,1.1-2.9,2.2-4.5,3.4
	c-13.8-10.5-27.5-20.8-41.2-31.2c-35.2-26.7-70.2-53.4-105.5-79.9c-4.9-3.6-6.9-7.3-6.8-13.5c0.2-75.7,0.2-151.3,0.2-227
	C103.1,82.3,103.1,80.7,103.1,78.5z"/>
<path class="st2" d="M241.9,373.6c-9,14.7-22.4,22.2-38.4,25c-10.4,1.7-21.2,2.8-31.7,2.4c-28.5-1.5-47.7-20.5-47.4-49.1
	c0.3-20.2,3.8-40.4,6.6-60.5c5.9-43.2,12.3-86.2,18.4-129.3c0.8-5.9,0.6-11.9,0.1-17.7c-1.5-16.4,7.4-30.2,23.4-33.7
	c14.4-3.1,29-5.9,43.6-6.2c24.7-0.5,49.7-1,74.1,2.2c55,7.1,87,51.7,79.3,106.7c-3.2,23-13.4,42.3-30.4,57.8
	c-4.9,4.5-5.3,8-2.7,13.5c9.2,20.2,17.8,40.7,27,61c7.3,16.1,3.7,31-10.5,41.5c-31.9,23.8-80.7,19.2-107.9-10.1
	C244.4,375.8,243.2,374.8,241.9,373.6z M297.4,268.2c11.5-11,23.5-19.7,32-30.9c29.7-39.2,7.8-93.9-40.8-100.1
	c-25-3.2-50.6-2-75.9-1.7c-10.5,0.1-20.9,2.8-30.8,4.2c-1.4,15.8-1.9,30.5-4,45.1c-7.1,49.9-14.8,99.8-22.1,149.6
	c-0.9,6.5-1.3,13.2-0.5,19.7c0.8,7.8,4.9,14,13.4,14.7c15.7,1.4,30.8-1.7,42.4-6.1c3.6-28.5,6.9-54.7,10.1-80.4
	c19.8-1.7,19.8-1.7,24.9,14.2c4.9,15.2,9.8,30.4,14.7,45.5c3.9,12,11.4,21.2,23.6,25c18.1,5.7,35.7,2,50.8-3.7
	C322,330.5,309.4,298.6,297.4,268.2z"/>
<path class="st3" d="M297.4,268.2c12.1,30.4,24.7,62.3,37.6,95c-15.2,5.8-32.7,9.5-50.8,3.7c-12.2-3.8-19.7-13-23.6-25
	c-4.9-15.2-9.8-30.4-14.7-45.5c-5.1-15.9-5.1-15.9-24.9-14.2c-3.2,25.7-6.5,51.8-10.1,80.4c-11.6,4.4-26.7,7.5-42.4,6.1
	c-8.4-0.7-12.6-7-13.4-14.7c-0.6-6.5-0.4-13.2,0.5-19.7c7.2-49.9,15-99.7,22.1-149.6c2.1-14.4,2.7-29.2,4-45.1
	c9.9-1.5,20.3-4.1,30.8-4.2c25.3-0.2,50.9-1.5,75.9,1.7c48.6,6.2,70.5,60.9,40.8,100.1C320.9,248.5,309,257.2,297.4,268.2z
	 M227.5,247c32.5,5.6,50.4-8.6,53.8-41.8c2.9-28.5-13.1-43-42.1-37.3C235.3,194.1,231.3,220.6,227.5,247z"/>
<path class="st2" d="M227.5,247c3.9-26.4,7.8-52.9,11.6-79.1c29-5.7,45,8.8,42.1,37.3C277.9,238.3,260,252.6,227.5,247z"/>
</svg>
