<?xml version="1.0" encoding="utf-8"?>
<!-- Generator: Adobe Illustrator 22.1.0, SVG Export Plug-In . SVG Version: 6.00 Build 0)  -->
<svg version="1.1" id="Layer_1" xmlns="http://www.w3.org/2000/svg" xmlns:xlink="http://www.w3.org/1999/xlink" x="0px" y="0px"
	 viewBox="0 0 506 506" style="enable-background:new 0 0 506 506;" xml:space="preserve">
<style type="text/css">
	.st0{display:none;}
	.st1{fill:#FFFFFF;}
</style>
<rect class="st0" width="506" height="506"/>
<path class="st1" d="M127.7,107.1c41.7,0,82.9,0,124.5,0c-3.1,8.7-6.1,17.1-9.2,25.5c-2.5,7-5.3,13.9-7.7,20.8
	c-0.9,2.7-2.3,3.6-5.1,3.6c-16.5-0.2-33,0-49.5-0.2c-3.5,0-4.9,0.8-4.8,4.6c0.2,39.5,0.2,78.9,0,118.4c0,3,1,4.8,3.4,6.6
	c24.7,18.6,49.3,37.3,73.8,56.1c2.6,2,4.4,1.8,6.9-0.1c24.5-18.8,49.1-37.5,73.8-56.1c2.3-1.7,3.2-3.4,3.2-6.3
	c-0.1-39.5-0.1-78.9,0.1-118.4c0-3.9-1.3-4.9-5-4.9c-17.6,0.2-35.3,0.1-53.2,0.1c-6-16.5-12.2-33.1-18.3-49.9c41.7,0,82.9,0,124.5,0
	c0.1,1.4,0.2,2.8,0.2,4.1c0,64.7,0,129.3,0.1,194c0,2.9-0.9,4.9-3.3,6.6c-40.6,30.7-81.1,61.6-121.7,92.3c-1.2,0.9-2.4,1.8-3.8,2.9
	c-11.6-8.8-23.1-17.5-34.6-26.2c-29.6-22.4-59-44.8-88.6-67.1c-4.1-3-5.8-6.1-5.7-11.3c0.2-63.6,0.2-127.1,0.2-190.6
	C127.7,110.3,127.7,108.9,127.7,107.1z"/>
</svg>
