<?xml version="1.0" encoding="utf-8"?>
<!-- Generator: Adobe Illustrator 22.1.0, SVG Export Plug-In . SVG Version: 6.00 Build 0)  -->
<svg version="1.1" id="Layer_1" xmlns="http://www.w3.org/2000/svg" xmlns:xlink="http://www.w3.org/1999/xlink" x="0px" y="0px"
	 viewBox="0 0 400 400" style="enable-background:new 0 0 400 400;" xml:space="preserve">
<style type="text/css">
	.st0{fill:#FFFFFF;}
</style>
<path class="st0" d="M188.4,229.4c-27.2,10.7-46.3,7-59.8-11.1c-11.6-15.5-11.2-37.6,0.9-52.9c13.7-17.3,33.1-20.6,57.8-10.2
	c4.8-8.8,12.8-2.7,19.4-4.8c0.4,2,0.8,3.3,0.8,4.6c0,26.4,0.3,52.6,0,79c-0.3,20.1-14.2,37.1-33.3,41.8c-19.1,4.6-38.9-4-48.4-21.1
	c-1.1-2-1.9-4.3-3.3-7.6c6.8,0,12.6-0.1,18.2,0.1c1.5,0.1,3.1,1.5,4.3,2.7c8.8,8.7,19,11.1,29.2,6.4
	C184.3,251.5,189.4,242.1,188.4,229.4z M139.2,192.8c0,13.7,11.2,24.8,25.3,24.8c13.9,0.1,25.6-11,25.8-24.5
	c0.3-13.7-11.8-25.3-25.8-25.2C150.4,168,139.2,179.1,139.2,192.8z"/>
<path class="st0" d="M75.9,159.6c-3.3,5.4-6.2,10-8.7,14.3c-7.8-2.5-14.9-5.4-22.2-7c-4.1-0.8-9-0.1-13,1.1c-2.1,0.7-4.4,4-4.7,6.3
	c-0.3,1.9,1.9,5.2,3.9,6.2c5,2.5,10.3,4,15.5,6c6.4,2.5,13.2,4.3,19.1,7.6c16.2,9.2,16.3,31.2,0.5,41.4c-9.1,5.8-19.1,6.8-29.6,5.9
	c-13-1.1-24.6-5.4-35.6-13.4c3.3-4.8,6.4-9.4,9.6-13.8c6.6,2.8,12.6,6.4,19.1,8c6.3,1.5,13.2,1.7,19.7,0.9c2.7-0.3,6.4-4.6,6.8-7.4
	c0.4-2.3-3.1-6.3-5.8-7.6c-5.6-2.7-11.8-4-17.7-6c-4.4-1.5-9-2.7-13.1-4.8c-8-4-13.5-10-13.9-19.7c-0.3-10,3.5-18.2,12.3-22.9
	c5.8-3.1,12.4-5.1,18.9-5.6C50.7,148.2,63.4,152.2,75.9,159.6z"/>
<path class="st0" d="M273.1,238.4c-6.6,0-12,0-18.1,0c-0.1-1.6-0.5-3.3-0.5-5.1c0-14.3-0.1-28.5,0-42.8
	c0.3-23.4,18.6-41.9,41.5-41.8c23.4,0,41.8,18.3,41.9,42.2c0.1,15.5,0,31.2,0,47.2c-6.4,0-12.2,0-18.7,0c0-15.4,0.1-30.5,0-45.6
	c-0.3-12.7-9.6-22.2-21.7-22.8c-13.2-0.5-23.8,9-24.1,22.3c-0.3,13-0.1,25.8-0.1,38.8C273.1,233.2,273.1,235.5,273.1,238.4z"/>
<path class="st0" d="M381.9,126.3c6.3,0,12,0,18.1,0c0,37.3,0,74.4,0,112c-6,0-11.9,0-18.1,0C381.9,200.8,381.9,163.9,381.9,126.3z"
	/>
</svg>
