<?xml version="1.0" encoding="utf-8"?>
<!-- Generator: Adobe Illustrator 23.0.1, SVG Export Plug-In . SVG Version: 6.00 Build 0)  -->
<svg version="1.1" id="Layer_1" xmlns="http://www.w3.org/2000/svg" xmlns:xlink="http://www.w3.org/1999/xlink" x="0px" y="0px"
	 viewBox="0 0 772.44 339.2" style="enable-background:new 0 0 772.44 339.2;" xml:space="preserve">
<style type="text/css">
	.st0{fill:#242038;}
</style>
<g>
	<path class="st0" d="M304.05,76.36l-29.44,186.47h-66.16l3.27-20.72H211c-7.03,8.97-15.99,15.69-26.9,20.17
		c-10.91,4.48-22.17,6.72-33.81,6.72c-17.94,0-33.44-4.61-46.53-13.81c-13.09-9.2-22.36-21.38-27.81-36.53
		c-5.45-15.14-6.72-31.56-3.82-49.25c4.36-27.38,16.84-50.76,37.44-70.15c20.59-19.39,44.47-29.08,71.61-29.08
		c11.14,0,21.56,2.06,31.26,6.18c9.69,4.12,17.2,10.18,22.54,18.18l2.91-18.18H304.05z M218.63,139.79
		c-6.3-8.12-15.99-12.18-29.08-12.18c-13.08,0-24.11,4.06-33.08,12.18c-8.97,8.12-14.3,18.12-15.99,29.99
		c-1.94,12.12,0.24,22.12,6.54,29.99c6.3,7.88,15.99,11.82,29.08,11.82c13.08,0,24.11-3.94,33.08-11.82
		c8.96-7.87,14.42-17.87,16.36-29.99C227.23,157.91,224.93,147.92,218.63,139.79z"/>
	<path class="st0" d="M481.8,81.09l-8.72,55.98c-10.42-8.72-21.08-13.08-31.99-13.08c-12.85,0-24.36,4.36-34.53,13.08
		c-10.18,8.72-16.24,19.51-18.18,32.35c-2.18,13.33,0.36,24.3,7.63,32.9c7.27,8.6,17.81,12.9,31.63,12.9
		c12.84,0,24.47-4.24,34.9-12.72l-8.72,55.98c-15.27,7.03-31.39,10.54-48.35,10.54c-27.87,0-50.22-9.27-67.06-27.81
		c-16.85-18.54-23.08-41.74-18.72-69.61c4.6-29.56,18.41-53.86,41.44-72.88C384.14,79.7,410.43,70.18,440,70.18
		C455.99,70.18,469.92,73.82,481.8,81.09z"/>
	<path class="st0" d="M699.89,173.78l-1.09,6.91H559.58c-2.18,13.58-0.31,23.87,5.64,30.9c5.94,7.03,15.69,10.54,29.26,10.54
		c14.3,0,25.68-5.69,34.17-17.09h63.61c-8.24,20.85-22.12,36.72-41.62,47.62c-19.51,10.91-40.65,16.36-63.43,16.36
		c-31.75,0-56.29-8.72-73.61-26.17c-17.33-17.45-23.45-41.8-18.36-73.06c4.84-30.77,18.18-55.07,39.98-72.88
		c21.81-17.81,48.1-26.72,78.88-26.72c31.99,0,55.55,9.27,70.7,27.81C699.95,116.53,704.98,141.79,699.89,173.78z M566.49,142.52
		h76.7c0-8.72-3.15-15.81-9.45-21.26c-6.3-5.45-14.06-8.18-23.26-8.18c-9.94,0-18.84,2.54-26.72,7.63
		C575.88,125.8,570.12,133.07,566.49,142.52z"/>
</g>
</svg>
